<svg xmlns="http://www.w3.org/2000/svg" width="250" height="250" fill="none" viewBox="0 0 250 250">
<!-- SVG created with Arrow, by QuiverAI (https://quiver.ai) -->
  <path d="m241.7 106.8-57.93-43.97c-2.42-1.9-4.8-2.31-8.72-2.31-3.2 0-5.94 0.97-7.76 2.54l-28.4 22.27h-26.72c-2.19-5.34-5.81-8.14-11.28-8.14-7.75 0-11.39 6.49-11.39 11.94 0 7.06 5.32 11.51 11.28 11.51 6.15 0 9.6-3.63 11.29-7.46h48.22c2.15 0 2.55 1.49 2.55 2.67 0 1.43-1.4 2.29-2.73 2.29h-39.04l-6.85 5.79c-1.28 1-2.93 1.37-4.47 1.37h-14.67c-2.91 0-5.01-1.4-6.96-3.38l-7.48-7.34c1-1.77 1.35-3.37 1.35-5.84 0-7.25-5.54-12.73-13.35-12.53-7.24 0.19-10.69 7.58-10.69 12.1 0 7 5.32 12.04 11.17 12.04 1.48 0 3.07-0.18 4.38-0.64l9.71 9.22c3.76 3.34 6.73 4.32 11.87 4.32h83.04c1.66 0 2.39 1.26 2.39 2.6 0 1.43-1.27 2.26-2.62 2.26h-51.15v3.83h-38.7c-2.9 0-5-1.4-6.95-3.38l-4.56-3.72c-3.16-2.55-5.74-3.97-10.88-3.97h-16.62c-2.65-4.88-5.76-7.07-11.3-7.07-7.24 0-12.01 6.81-12.01 12.03 0 7.06 5.82 11.51 11.78 11.51 6.15 0 10.12-3.63 11.81-8.21h15.93c2.9 0 5 0.93 6.95 2.91l3.88 3.54c0.77 0.64 0.8 1.82 0.08 2.56l-4.44 4.64c-2.09 2.12-4.14 2.2-7.29 2.2h-34.85c-2.6-5.16-5.85-7.64-11.89-7.64-7.25 0-11.2 7.09-11.2 11.86 0 7.06 5.32 11.51 11.27 11.51 6.15 0 9.63-3.19 11.62-7.77h34.41c8.13 0 11.9-2.71 15.2-6.7l3.85-4.1c1.87-1.9 3.46-2.27 5.68-2.27h107c1.66 0 2.39 1.26 2.39 2.6 0 1.43-1.36 2.26-2.71 2.26h-68.48v6.5h-14.67c-6.75 0-9.28 1.52-14.19 6.45l-3.13 3.18c-2.1 1.9-3.57 2.49-6.72 2.49h-20.99c-2.6-4.89-5.5-7.36-11.54-7.36-7.24 0-11.19 6.49-11.19 12.08 0 7.06 5.32 11.18 11.27 11.18 6.15 0 9.91-3.32 11.6-6.95h20.49c6.75 0 10-2.51 14.91-7.44l2.55-2.59c2.1-2.2 4.05-3.08 7.2-3.08h66.38c1.66 0 2.38 0.94 2.38 2.6 0 1.43-1.35 2.54-2.7 2.54h-51.72v7.22h-1.77c-5.69 0-8.41 2.31-12.93 6.89l-2.6 2.41c-2.1 1.9-4.05 2.08-7.2 2.08h-4.61c-2.59-5.15-5.49-6.87-11.54-6.87-7.24 0-11.86 6.21-11.86 12.06 0 7.06 5.33 10.61 11.28 10.61 6.15 0 9.44-2.87 11.59-7.45h5.14c5.69 0 9.43-2.47 13.95-7.05l2.45-2.41c1.45-1.43 2.85-2.14 5.21-2.14h37.66c1.66 0 2.38 0.94 2.38 2.37s-1.13 2.29-2.48 2.29h-34.67v6.64c0 4.24 3.32 6.32 6.54 6.32h84.49c5.17 0 7.25-4.27 7.25-6.82v-63.33h12.61c5.88 0 8.12-7.09 4.14-10.35zm-140.7-13.62c-3.1 0-3.91-2.44-3.91-4.05 0-2.26 1.42-3.74 3.73-3.74 2.78 0 4.32 1.98 4.32 3.96 0 1.96-1.43 3.83-4.14 3.83zm-32.02-0.78c-2.78-0.61-3.54-2.51-3.38-3.94 0.19-1.77 1.38-3.38 3.55-3.38 2.78 0 4.15 1.9 4.15 3.67 0 2.22-1.82 4.23-4.32 3.65zm-31.37 26.58c-2.54-0.99-3.31-2.89-3.01-4.32 0.41-1.77 1.4-2.63 3.16-2.63 2.63 0 4.05 1.5 4.05 3.53 0 1.97-1.9 4.22-4.2 3.42zm-19.7 23.96c-2.54-0.64-3.58-2.31-3.45-3.91 0.19-2.1 1.54-3.74 3.45-3.74 2.31 0 3.9 1.61 3.9 3.59 0 1.96-1.4 4.29-3.9 4.06zm37.93 19.19c-2.54-0.64-3.58-2.2-3.45-3.88 0.18-2.39 1.48-3.82 3.39-3.82 2.42 0 3.99 1.5 3.99 3.48 0 2.22-1.67 4.45-3.93 4.22zm30.29 18.7c-2.54-0.4-3.58-1.9-3.45-3.57 0.18-2.12 1.27-3.3 3.18-3.3 2.41 0 3.98 1.25 3.98 3.23 0 1.96-1.45 3.75-3.71 3.64z" fill="#F2BB08"/>
</svg>